REM DIRINDEX 1\5,1\2\6,1\2\7,1\3\8,1\3\9,1\3\10,1\3\11,1\4\12,1\4\13,1\4\14
REM DIRNAME cjc043,folder01,folder02,folder03,folder04,folder05,folder06,folder07,folder08,folder09,folder10,folder11,folder12,folder13
TITLE ""
FILE "5Q_t_274-288.mp3" MP3
  TRACK 01 AUDIO
    TITLE "5:cjc043_0953"
    INDEX 01 00:00:00
  TRACK 02 AUDIO
    TITLE "0:"
    INDEX 01 00:04:72
  TRACK 03 AUDIO
    TITLE "6:cjc043_0954"
    INDEX 01 00:05:46
  TRACK 04 AUDIO
    TITLE "0:"
    INDEX 01 00:06:47
  TRACK 05 AUDIO
    TITLE "7:cjc043_0955"
    INDEX 01 00:07:27
  TRACK 06 AUDIO
    TITLE "0:"
    INDEX 01 00:10:12
  TRACK 07 AUDIO
    TITLE "6:cjc043_0956"
    INDEX 01 00:10:63
  TRACK 08 AUDIO
    TITLE "0:"
    INDEX 01 00:11:56
  TRACK 09 AUDIO
    TITLE "7:cjc043_0957"
    INDEX 01 00:12:40
  TRACK 10 AUDIO
    TITLE "0:"
    INDEX 01 00:14:58
  TRACK 11 AUDIO
    TITLE "6:cjc043_0958"
    INDEX 01 00:15:42
  TRACK 12 AUDIO
    TITLE "0:"
    INDEX 01 00:16:38
  TRACK 13 AUDIO
    TITLE "7:cjc043_0959"
    INDEX 01 00:17:12
  TRACK 14 AUDIO
    TITLE "0:"
    INDEX 01 00:19:20
  TRACK 15 AUDIO
    TITLE "6:cjc043_0960"
    INDEX 01 00:19:71
  TRACK 16 AUDIO
    TITLE "0:"
    INDEX 01 00:20:71
  TRACK 17 AUDIO
    TITLE "7:cjc043_0961"
    INDEX 01 00:21:51
  TRACK 18 AUDIO
    TITLE "0:"
    INDEX 01 00:22:74
  TRACK 19 AUDIO
    TITLE "6:cjc043_0962"
    INDEX 01 00:23:53
  TRACK 20 AUDIO
    TITLE "0:"
    INDEX 01 00:24:51
  TRACK 21 AUDIO
    TITLE "7:cjc043_0963"
    INDEX 01 00:25:27
  TRACK 22 AUDIO
    TITLE "0:"
    INDEX 01 00:26:38
  TRACK 23 AUDIO
    TITLE "6:cjc043_0964"
    INDEX 01 00:27:14
  TRACK 24 AUDIO
    TITLE "0:"
    INDEX 01 00:28:17
  TRACK 25 AUDIO
    TITLE "7:cjc043_0965"
    INDEX 01 00:28:68
  TRACK 26 AUDIO
    TITLE "0:"
    INDEX 01 00:31:71
  TRACK 27 AUDIO
    TITLE "6:cjc043_0966"
    INDEX 01 00:32:50
  TRACK 28 AUDIO
    TITLE "0:"
    INDEX 01 00:33:56
  TRACK 29 AUDIO
    TITLE "7:cjc043_0967"
    INDEX 01 00:34:34
  TRACK 30 AUDIO
    TITLE "0:"
    INDEX 01 00:38:08
  TRACK 31 AUDIO
    TITLE "6:cjc043_0968"
    INDEX 01 00:38:63
  TRACK 32 AUDIO
    TITLE "0:"
    INDEX 01 00:39:72
  TRACK 33 AUDIO
    TITLE "7:cjc043_0969"
    INDEX 01 00:40:52
  TRACK 34 AUDIO
    TITLE "0:"
    INDEX 01 00:44:54
  TRACK 35 AUDIO
    TITLE "6:cjc043_0970"
    INDEX 01 00:45:28
  TRACK 36 AUDIO
    TITLE "0:"
    INDEX 01 00:46:29
  TRACK 37 AUDIO
    TITLE "7:cjc043_0971"
    INDEX 01 00:47:03
  TRACK 38 AUDIO
    TITLE "0:"
    INDEX 01 00:52:32
  TRACK 39 AUDIO
    TITLE "6:cjc043_0972"
    INDEX 01 00:53:09
  TRACK 40 AUDIO
    TITLE "0:"
    INDEX 01 00:54:17
  TRACK 41 AUDIO
    TITLE "7:cjc043_0973"
    INDEX 01 00:54:74
  TRACK 42 AUDIO
    TITLE "0:"
    INDEX 01 00:59:51
  TRACK 43 AUDIO
    TITLE "6:cjc043_0974"
    INDEX 01 01:00:31
  TRACK 44 AUDIO
    TITLE "0:"
    INDEX 01 01:01:29
  TRACK 45 AUDIO
    TITLE "7:cjc043_0975"
    INDEX 01 01:02:08
  TRACK 46 AUDIO
    TITLE "0:"
    INDEX 01 01:05:22
  TRACK 47 AUDIO
    TITLE "6:cjc043_0976"
    INDEX 01 01:06:00
  TRACK 48 AUDIO
    TITLE "0:"
    INDEX 01 01:07:08
  TRACK 49 AUDIO
    TITLE "7:cjc043_0977"
    INDEX 01 01:07:61
  TRACK 50 AUDIO
    TITLE "0:"
    INDEX 01 01:11:41
  TRACK 51 AUDIO
    TITLE "6:cjc043_0978"
    INDEX 01 01:12:23
  TRACK 52 AUDIO
    TITLE "0:"
    INDEX 01 01:13:26
  TRACK 53 AUDIO
    TITLE "7:cjc043_0979"
    INDEX 01 01:14:08
  TRACK 54 AUDIO
    TITLE "0:"
    INDEX 01 01:15:50
  TRACK 55 AUDIO
    TITLE "6:cjc043_0980"
    INDEX 01 01:16:24
  TRACK 56 AUDIO
    TITLE "0:"
    INDEX 01 01:17:37
  TRACK 57 AUDIO
    TITLE "7:cjc043_0981"
    INDEX 01 01:18:11
  TRACK 58 AUDIO
    TITLE "0:"
    INDEX 01 01:20:30
  TRACK 59 AUDIO
    TITLE "6:cjc043_0982"
    INDEX 01 01:21:06
  TRACK 60 AUDIO
    TITLE "0:"
    INDEX 01 01:22:11
  TRACK 61 AUDIO
    TITLE "7:cjc043_0983"
    INDEX 01 01:22:62
  TRACK 62 AUDIO
    TITLE "0:"
    INDEX 01 01:24:65
